<?xml version="1.0" encoding="utf-8"?>
<!-- Generator: Adobe Illustrator 23.0.4, SVG Export Plug-In . SVG Version: 6.00 Build 0)  -->
<svg version="1.1" id="Layer_1" xmlns="http://www.w3.org/2000/svg" xmlns:xlink="http://www.w3.org/1999/xlink" x="0px" y="0px"
	 viewBox="0 0 1498.9 923.8" style="enable-background:new 0 0 1498.9 923.8;" xml:space="preserve">
<style type="text/css">
	.st0{fill:#FFFFFF;}
	.st1{fill:url(#SVGID_1_);}
	.st2{fill:url(#SVGID_2_);}
	.st3{fill:url(#SVGID_3_);}
	.st4{fill:url(#SVGID_4_);}
	.st5{fill:url(#SVGID_5_);}
	.st6{fill:none;stroke:url(#SVGID_6_);stroke-width:12;stroke-linecap:round;stroke-miterlimit:10;}
	.st7{fill:url(#SVGID_7_);}
	.st8{fill:none;stroke:#FFFFFF;stroke-width:4;stroke-miterlimit:10;}
</style>
<title>background2</title>
<circle class="st0" cx="181" cy="155.2" r="48.1"/>
<image style="overflow:visible;opacity:0.75;enable-background:new    ;" width="533" height="693" xlink:href="4A0ED699FC8BF6F9.png"  transform="matrix(0.2397 0 0 0.2397 117.5428 89.8986)">
</image>
<linearGradient id="SVGID_1_" gradientUnits="userSpaceOnUse" x1="317.6805" y1="350.9186" x2="440.9405" y2="350.9186" gradientTransform="matrix(1 0 0 -1 -198.28 523.3972)">
	<stop  offset="0" style="stop-color:#14C6A8"/>
	<stop  offset="1" style="stop-color:#14E4A8"/>
</linearGradient>
<path class="st1" d="M181,91.7c-34,0-61.6,27.6-61.6,61.6c0,34,61.6,99.9,61.6,99.9s61.6-65.9,61.6-99.9
	C242.7,119.3,215.1,91.7,181,91.7z M181,193.6c-22.7,0-41.1-18.4-41.1-41.1s18.4-41.1,41.1-41.1s41.1,18.4,41.1,41.1l0,0
	C222.1,175.2,203.7,193.6,181,193.6L181,193.6z"/>
<circle class="st0" cx="1302.7" cy="669.8" r="48.1"/>
<image style="overflow:visible;opacity:0.75;enable-background:new    ;" width="183" height="215" xlink:href="4A0ED699FC8BF6FB.png"  transform="matrix(0.2387 0 0 0.2387 159.7874 124.2297)">
</image>
<linearGradient id="SVGID_2_" gradientUnits="userSpaceOnUse" x1="148.1873" y1="855.9134" x2="187.2874" y2="855.9134" gradientTransform="matrix(1 0 0 -1 13.57 1005.3472)">
	<stop  offset="0" style="stop-color:#14C6A8"/>
	<stop  offset="1" style="stop-color:#14E4A8"/>
</linearGradient>
<path class="st2" d="M172.8,158.1l-4.8,14.7h-6.2l15.9-46.7h7.3l16,46.7h-6.4l-5-14.7H172.8z M188.1,153.4l-4.6-13.5
	c-1-3-1.7-5.8-2.4-8.5H181c-0.7,2.8-1.4,5.6-2.4,8.5l-4.5,13.5H188.1z"/>
<image style="overflow:visible;opacity:0.75;enable-background:new    ;" width="534" height="693" xlink:href="4A0ED699FC8BF6FE.png"  transform="matrix(0.2396 0 0 0.2396 1243.9569 604.5343)">
</image>
<linearGradient id="SVGID_3_" gradientUnits="userSpaceOnUse" x1="1444.2068" y1="-163.7064" x2="1567.4668" y2="-163.7064" gradientTransform="matrix(1 0 0 -1 -198.28 523.3972)">
	<stop  offset="0" style="stop-color:#14C6A8"/>
	<stop  offset="1" style="stop-color:#14E4A8"/>
</linearGradient>
<path class="st3" d="M1307.6,606.3c-34,0-61.6,27.6-61.6,61.6l0,0c0,34,61.6,99.9,61.6,99.9s61.6-65.9,61.6-99.9
	C1369.2,633.9,1341.6,606.3,1307.6,606.3L1307.6,606.3z M1307.6,708.2c-22.7,0-41.1-18.4-41.1-41.1c0-22.7,18.4-41.1,41.1-41.1
	c22.7,0,41.1,18.4,41.1,41.1c0,0,0,0,0,0C1348.6,689.9,1330.2,708.2,1307.6,708.2L1307.6,708.2z"/>
<image style="overflow:visible;opacity:0.75;enable-background:new    ;" width="228" height="228" xlink:href="4A0ED699FC8BF6FF.png"  transform="matrix(0.2389 0 0 0.2389 1280.6105 784.2585)">
</image>
<linearGradient id="SVGID_4_" gradientUnits="userSpaceOnUse" x1="994.5005" y1="1557.5387" x2="1044.5005" y2="1557.5387" gradientTransform="matrix(0 1 1 0 -250.0381 -208.3619)">
	<stop  offset="0" style="stop-color:#14C6A8"/>
	<stop  offset="1" style="stop-color:#14E4A8"/>
</linearGradient>
<circle class="st4" cx="1307.5" cy="811.1" r="25"/>
<image style="overflow:visible;opacity:0.75;enable-background:new    ;" width="227" height="228" xlink:href="4A0ED699FC8BF6FA.png"  transform="matrix(0.2389 0 0 0.2389 155.25 267.7386)">
</image>
<linearGradient id="SVGID_5_" gradientUnits="userSpaceOnUse" x1="477.9505" y1="432.0286" x2="527.9505" y2="432.0286" gradientTransform="matrix(0 1 1 0 -250.0381 -208.3619)">
	<stop  offset="0" style="stop-color:#14C6A8"/>
	<stop  offset="1" style="stop-color:#14E4A8"/>
</linearGradient>
<circle class="st5" cx="182" cy="294.6" r="25"/>
<image style="overflow:visible;opacity:0.75;enable-background:new    ;" width="4414" height="2378" xlink:href="4A0ED699FC8BF6F5.png"  transform="matrix(0.24 0 0 0.24 215.8505 240.3386)">
</image>
<linearGradient id="SVGID_6_" gradientUnits="userSpaceOnUse" x1="441.3694" y1="593.1361" x2="797.5394" y2="593.1361" gradientTransform="matrix(-0.29 0.96 3.98 1.21 -1424.2452 -803.7112)">
	<stop  offset="0" style="stop-color:#14C6A8"/>
	<stop  offset="1" style="stop-color:#14E4A8"/>
</linearGradient>
<path class="st6" d="M1266.6,802.3l-413.5-87c-21.3-4.5-39.8-17.8-50.8-36.6l-218.5-372c-25.8-43.9-76.7-66.5-126.6-56.2
	l-233.6,41.8"/>
<image style="overflow:visible;opacity:0.75;enable-background:new    ;" width="153" height="237" xlink:href="4A0ED699FC8BF6F6.png"  transform="matrix(0.239 0 0 0.239 1293.0995 638.7197)">
</image>
<linearGradient id="SVGID_7_" gradientUnits="userSpaceOnUse" x1="1293.8921" y1="110.7869" x2="1326.1135" y2="110.7869" gradientTransform="matrix(1 0 0 -1 1 777.3972)">
	<stop  offset="0" style="stop-color:#14C6A8"/>
	<stop  offset="1" style="stop-color:#14E4A8"/>
</linearGradient>
<path class="st7" d="M1294.9,641.7c4-0.7,8-1.1,12-1.1c6.6,0,10.8,1.1,14,3.7c2.8,2.1,4.4,5.5,4.2,9c0,4.9-3.3,9.2-8.6,11.2v0.2
	c4.8,1.2,10.5,5.2,10.5,12.8c0.1,3.9-1.5,7.6-4.3,10.2c-3.6,3.3-9.3,4.8-17.7,4.8c-3.4,0-6.8-0.2-10.2-0.6L1294.9,641.7z
	 M1301.5,662.6h6c7,0,11.1-3.6,11.1-8.6c0-6-4.5-8.3-11.2-8.3c-2,0-3.9,0.1-5.8,0.5L1301.5,662.6z M1301.5,687.1
	c1.8,0.2,3.7,0.3,5.5,0.3c6.8,0,13.1-2.5,13.1-9.9c0-7-6-9.9-13.2-9.9h-5.4V687.1z"/>
<rect x="3.5" y="4.8" class="st8" width="1490" height="914.3"/>
</svg>
